<svg version="1.1" xmlns="http://www.w3.org/2000/svg" xmlns:xlink="http://www.w3.org/1999/xlink" id="i-instagram" width="32" height="32" viewBox="0 0 32 32" preserveAspectRatio="xMidYMid meet">
  <g transform="translate(0.000000,300.000000) scale(0.100000,-0.100000)" fill="#030303" stroke="none">
    <path class="node" id="node1" d="M768 2403 l-3 -298 -50 0 -50 0 -5 292 -5 292 -25 -12 -25 -13 -3
    -282 -2 -283 -48 3 -47 3 -5 254 -5 253 -58 -61 c-35 -37 -71 -87 -90 -128
    l-32 -68 -3 -217 -4 -218 377 0 377 0 44 39 c59 52 164 105 249 127 189 48
    409 -7 559 -140 l29 -26 379 0 378 0 0 168 c0 207 -11 274 -56 360 -45 85
    -102 144 -184 190 -109 61 -115 62 -852 62 l-668 0 -2 -297 -3 -298 -50 0 -50
    0 -3 298 -2 297 -30 0 -30 0 -2 -297z m1683 94 c33 -26 39 -55 39 -205 0 -136
    -2 -152 -21 -176 l-20 -26 -165 0 c-218 0 -204 -14 -204 209 l0 170 26 20 c24
    19 40 21 178 21 103 -1 156 -5 167 -13z"></path>
    <path class="node" id="node2" d="M1395 1942 c-91 -24 -146 -53 -208 -110 -160 -150 -199 -362 -102
    -559 92 -185 303 -285 517 -244 209 41 368 238 368 456 0 301 -289 530 -575
    457z m258 -137 c101 -52 171 -143 197 -253 34 -147 -52 -314 -197 -383 -90
    -43 -162 -49 -250 -19 -108 36 -174 95 -225 198 -34 71 -32 205 4 284 44 95
    136 173 235 198 67 16 178 5 236 -25z"></path>
    <path class="node" id="node3" d="M310 1268 c0 -335 5 -591 10 -615 28 -119 131 -253 235 -306 97 -48
    106 -49 980 -45 l820 3 65 31 c149 71 241 189 270 341 6 35 10 267 10 610 l0
    553 -344 0 -344 0 28 -52 c61 -112 75 -172 74 -308 -1 -109 -4 -133 -27 -190
    -44 -113 -70 -153 -152 -236 -63 -63 -98 -89 -165 -122 -237 -116 -510 -70
    -699 117 -127 125 -183 256 -185 431 -1 119 24 219 75 303 16 26 29 49 29 52
    0 3 -153 5 -340 5 l-340 0 0 -572z"></path>
  </g>

  <g transform="translate(0.000000,300.000000) scale(0.100000,-0.100000)" fill="#999999" stroke="none">
    <path class="node" id="node5" d="M2106 2489 l-26 -20 0 -170 c0 -223 -14 -209 204 -209 l165 0 20 26
    c19 24 21 40 21 176 0 150 -6 179 -39 205 -11 8 -64 12 -167 13 -138 0 -154
    -2 -178 -21z"></path>
    <path class="node" id="node6" d="M1417 1830 c-99 -25 -191 -103 -235 -198 -36 -79 -38 -213 -4 -284
    51 -103 117 -162 225 -198 205 -69 422 78 454 305 17 128 -73 282 -204 350
    -58 30 -169 41 -236 25z"></path>
  </g>
</svg>
