<svg version="1.1" xmlns="http://www.w3.org/2000/svg" xmlns:xlink="http://www.w3.org/1999/xlink">
  <symbol id="htmlacademy" viewBox="0 0 60 60">
    <path fill="#2E368F" d="M30.2 5h-.2l-19.7 2.1v36.2l19.7 11.7 19.7-11.7v-36.2l-19.5-2.1zm17 36.8l-17.2 10.2-17.2-10.2v-14.8l17.1 10.2v1.8l-11.7-7v1.8l11.8 7.1v1.9l-11.8-7v1.8l11.8 7 11.9-7.1v-7.6l5.3-3.2v15.1zm-.1-17l-4.7 2.8-2.2 1.3-10.3-6.1v1.8l8.8 5.3h-.1l-.2.1-1.3.7-7.3-4.3v1.8l5.8 3.4-1.4.9-4.3-2.6v1.8l2.9 1.7-2.9 1.7-17-10.1 17-10.2 17.2 10zm.1-1.8l-17.3-10.2-17.1 10.2v-13.6l17.2-1.8 17.2 1.8v13.6z"/>
  </symbol>

  <symbol id="icon-cart" viewBox="0 0 32 32">
    <path d="M6 6 L30 6 27 19 9 19 M27 23 L10 23 5 2 2 2"/>
    <circle cx="25" cy="27" r="2"/>
    <circle cx="12" cy="27" r="2"/>
  </symbol>

  <symbol id="icon-compare">
    <g>
      <rect stroke="#fff" id="svg_2" height="208" width="100" y="193" x="-0.5" stroke-width="1.5" fill="#000"/>
      <rect stroke="#fff" id="svg_3" height="387" width="100" y="14" x="136.5" stroke-width="1.5" fill="#000"/>
      <rect stroke="#fff" id="svg_4" height="387" width="40" y="13" x="235.5" stroke-width="1.5" fill="#b9a970"/>
      <rect stroke="#fff" id="svg_6" height="10" width="0.908632" y="0" x="5.6" fill-opacity="null" stroke-opacity="null" stroke-width="0" fill="#b9a970"/>
      <rect stroke="#fff" id="svg_7" height="10" width="1.848595" y="0" x="3.8" stroke-opacity="null" stroke-width="0" fill="#000000"/>
      <rect stroke="#fff" id="svg_10" height="5.6" width="1.848595" y="4.5" x="0" stroke-opacity="null" stroke-width="0" fill="#000000"/>
      <rect stroke="#fff" id="svg_11" height="8" width="2" y="2" x="8" stroke-opacity="null" stroke-width="0" fill="#000000"/>
     </g>
  </symbol>

  <symbol id="icon-facebook" viewBox="0 0 8.673 18.944">
    <path d="M6.275,3.357c0.799,0,1.599,0,2.398,0c0-1.119,0-2.238,0-3.357c-0.959,0-1.92,0-2.878,0C2.656,0.181,1.54,2.387,1.948,6.115
  	H0v3.517h1.958c0,3.104,0,6.208,0,9.312c1.279,0,2.558,0,3.837,0c0-3.104,0-6.208,0-9.312h2.857V6.115H5.786
  	C5.765,5.07,5.75,3.709,6.275,3.357z"/>
  </symbol>

  <symbol id="icon-instagram" viewBox="0 0 32 32" preserveAspectRatio="xMidYMid meet">
    <g transform="translate(0.000000,300.000000) scale(0.100000,-0.100000)" fill="#030303" stroke="none">
      <path class="node" id="node1" d="M768 2403 l-3 -298 -50 0 -50 0 -5 292 -5 292 -25 -12 -25 -13 -3
      -282 -2 -283 -48 3 -47 3 -5 254 -5 253 -58 -61 c-35 -37 -71 -87 -90 -128
      l-32 -68 -3 -217 -4 -218 377 0 377 0 44 39 c59 52 164 105 249 127 189 48
      409 -7 559 -140 l29 -26 379 0 378 0 0 168 c0 207 -11 274 -56 360 -45 85
      -102 144 -184 190 -109 61 -115 62 -852 62 l-668 0 -2 -297 -3 -298 -50 0 -50
      0 -3 298 -2 297 -30 0 -30 0 -2 -297z m1683 94 c33 -26 39 -55 39 -205 0 -136
      -2 -152 -21 -176 l-20 -26 -165 0 c-218 0 -204 -14 -204 209 l0 170 26 20 c24
      19 40 21 178 21 103 -1 156 -5 167 -13z"/>
      <path class="node" id="node2" d="M1395 1942 c-91 -24 -146 -53 -208 -110 -160 -150 -199 -362 -102
      -559 92 -185 303 -285 517 -244 209 41 368 238 368 456 0 301 -289 530 -575
      457z m258 -137 c101 -52 171 -143 197 -253 34 -147 -52 -314 -197 -383 -90
      -43 -162 -49 -250 -19 -108 36 -174 95 -225 198 -34 71 -32 205 4 284 44 95
      136 173 235 198 67 16 178 5 236 -25z"/>
      <path class="node" id="node3" d="M310 1268 c0 -335 5 -591 10 -615 28 -119 131 -253 235 -306 97 -48
      106 -49 980 -45 l820 3 65 31 c149 71 241 189 270 341 6 35 10 267 10 610 l0
      553 -344 0 -344 0 28 -52 c61 -112 75 -172 74 -308 -1 -109 -4 -133 -27 -190
      -44 -113 -70 -153 -152 -236 -63 -63 -98 -89 -165 -122 -237 -116 -510 -70
      -699 117 -127 125 -183 256 -185 431 -1 119 24 219 75 303 16 26 29 49 29 52
      0 3 -153 5 -340 5 l-340 0 0 -572z"/>
    </g>

    <g transform="translate(0.000000,300.000000) scale(0.100000,-0.100000)" fill="#999999" stroke="none">
      <path class="node" id="node5" d="M2106 2489 l-26 -20 0 -170 c0 -223 -14 -209 204 -209 l165 0 20 26
      c19 24 21 40 21 176 0 150 -6 179 -39 205 -11 8 -64 12 -167 13 -138 0 -154
      -2 -178 -21z"/>
      <path class="node" id="node6" d="M1417 1830 c-99 -25 -191 -103 -235 -198 -36 -79 -38 -213 -4 -284
      51 -103 117 -162 225 -198 205 -69 422 78 454 305 17 128 -73 282 -204 350
      -58 30 -169 41 -236 25z"/>
    </g>
  </symbol>

  <symbol id="icon-search" viewBox="0 0 32 32">
      <circle cx="14" cy="14" r="12"/>
      <path d="M23 23 L30 30"/>
  </symbol>

  <symbol id="icon-twitter" viewBox="0 0 17.5 14.663">
    <g id="W6EeEF_1_">
    	<g>
    		<path fill-rule="evenodd" clip-rule="evenodd" d="M11.283,0.153c1.736-0.485,3.074,0.263,3.685,1.151
    			c0.694-0.226,1.372-0.47,2.072-0.691c-0.004,0.841-0.538,1.478-0.883,1.727C16.861,2.506,17.5,1.86,17.5,1.86
    			c-0.175,0.976-1.035,1.746-1.611,1.977C15.65,10.429,12.617,14.793,5.507,14.66c-0.538,0,0.077,0-0.46,0
    			c-0.422,0-4.29-0.45-5.047-1.843c2.341,0.192,4.011-0.412,4.835-1.15c-0.989-0.293-2.761-0.464-3.07-2.881
    			c0.362,0.105,0.583,0.223,1.228,0.117C1.757,8.067,0.385,7.366,0.461,5.218c0.294,0.32,1.1,0.523,1.381,0.461
    			c-0.725-0.235-2.03-3.281-0.921-4.836C2.794,2.654,4.769,4.364,8.29,4.528C8.506,2.288,9.461,0.787,11.283,0.153z"/>
    	</g>
    </g>
  </symbol>

  <symbol id="icon-user" viewBox="0 0 32 32">
      <path d="M22 11 C22 16 19 20 16 20 13 20 10 16 10 11 10 6 12 3 16 3 20 3 22 6 22 11 Z M4 30 L28 30 C28 21 22 20 16 20 10 20 4 21 4 30 Z"/>
  </symbol>
</svg>
